# xmcd
#
# Track frame offsets:
#	150
#	16272
#	37897
#	59861
#	72607
#	91075
#	104253
#	135883
#	151755
#	184746
#	200423
#
# Disc length: 2975 seconds
#
# Revision: 0
# Processed by: cddbd v1.4PL0 Copyright (c) Steve Scherf et al.
# Submitted via: EasyCDDAExtractor 5.0.4.1
#
DISCID=8b0b9d0b
DTITLE=The Bluesmen
DYEAR=2002
DGENRE=Blues
TTITLE0=No words blues
TTITLE1=Passion of blues
TTITLE2=The blues is my life
TTITLE3=Super shuffle
TTITLE4=My baby
TTITLE5=Big trouble in Santa Fè
TTITLE6=To be 
TTITLE7=Jimmy hallo george
TTITLE8=Blues for Tom
TTITLE9=Cross road blues
TTITLE10=Bluerain
EXTD=
EXTT0=
EXTT1=
EXTT2=
EXTT3=
EXTT4=
EXTT5=
EXTT6=
EXTT7=
EXTT8=
EXTT9=
EXTT10=
PLAYORDER=
